<svg version="1.1" id="Layer_1" xmlns="http://www.w3.org/2000/svg" xmlns:xlink="http://www.w3.org/1999/xlink" x="0px" y="0px"
	 width="100%" viewBox="0 0 1024 944" enable-background="new 0 0 1024 944" xml:space="preserve">
<path fill="#000000" opacity="1.000000" stroke="none" 
	d="
M106.592499,568.303284 
	C102.467209,548.636841 99.973022,529.206909 98.710892,509.569061 
	C98.111832,500.248169 97.655464,490.949127 97.746788,481.623749 
	C98.080864,447.508911 102.596634,413.947266 111.085907,380.901855 
	C125.823395,323.534637 152.035614,271.925079 189.232040,225.936844 
	C222.843048,184.381485 263.158600,150.728363 309.963074,124.846527 
	C345.950043,104.946548 384.099121,90.861595 424.299622,82.455437 
	C457.191803,75.577492 490.526917,72.344917 524.099304,74.027054 
	C611.257263,78.394096 690.038574,106.336205 759.082825,160.067307 
	C817.412354,205.460068 860.428894,262.653748 888.213989,331.231018 
	C901.926086,365.074310 910.854858,400.169434 914.930603,436.397034 
	C918.232422,465.745483 918.348877,495.173737 915.488586,524.652283 
	C909.563782,585.713806 890.591614,642.450745 859.021667,694.854614 
	C822.065796,756.198547 772.199341,804.602844 709.971558,840.117920 
	C668.052185,864.042419 623.174255,879.808899 575.613892,887.957886 
	C545.936523,893.042786 515.942505,895.182861 486.006989,892.958984 
	C341.364563,882.213806 230.613281,814.952881 154.467010,691.487305 
	C133.357895,657.260437 118.618835,620.127563 109.520439,580.860596 
	C108.582535,576.812805 107.619637,572.770752 106.592499,568.303284 
M388.562805,107.149948 
	C380.088104,110.137535 371.507996,112.858223 363.156311,116.157211 
	C318.215149,133.909363 277.819153,159.052063 242.044067,191.519241 
	C212.346207,218.471100 187.394669,249.316528 167.022873,283.884552 
	C135.528030,337.326721 117.320724,394.998383 113.566315,456.852356 
	C111.096581,497.541382 114.194336,537.933533 124.163048,577.737305 
	C137.339966,630.350952 160.103668,678.291321 192.724655,721.491699 
	C224.540543,763.625854 263.434052,797.930786 309.036407,824.603638 
	C358.825348,853.725342 412.530640,870.998169 469.838379,876.438660 
	C500.386627,879.338684 531.077637,878.742004 561.562683,874.559692 
	C600.082581,869.275085 637.110840,858.649902 672.342224,842.168884 
	C747.077576,807.208008 805.641968,754.321533 847.832642,683.326416 
	C877.227051,633.863831 894.715820,580.388489 900.388000,523.307617 
	C903.284912,494.154755 902.984741,464.811523 899.323120,435.553558 
	C896.106323,409.850189 890.544922,384.767853 882.544067,360.168823 
	C869.388184,319.720276 850.020935,282.432678 824.542297,248.470856 
	C777.861816,186.247864 718.069275,141.241150 645.203247,113.777924 
	C607.533752,99.580307 568.522827,91.402985 528.372375,89.455849 
	C481.074463,87.162102 434.630310,92.806015 388.562805,107.149948 
z"/>
<path fill="#000000" opacity="1.000000" stroke="none" 
	d="
M393.191010,395.148865 
	C403.665314,391.163574 413.764008,387.280212 423.900330,383.497620 
	C426.728882,382.442047 428.701447,381.176117 426.748138,377.243042 
	C414.793091,381.712921 402.902344,386.158752 390.363770,390.846832 
	C390.887512,387.880035 392.810669,387.526062 394.250275,386.782410 
	C403.462158,382.023804 413.354553,378.964142 423.056396,375.449890 
	C426.666107,374.142395 428.764618,372.141632 429.774628,368.292175 
	C433.280090,354.931732 441.193207,344.346161 451.618286,335.590820 
	C463.548370,325.571472 476.094330,316.551483 491.685028,312.966919 
	C507.646820,309.297028 523.406067,309.919617 538.938599,315.200684 
	C539.696838,315.458435 540.378967,315.990204 541.030579,316.481781 
	C541.236328,316.636932 541.226807,317.077332 541.389160,317.642548 
	C538.821838,318.577515 536.599854,317.161377 534.318604,316.628754 
	C514.076294,311.902618 494.859589,313.956421 477.463837,325.934113 
	C465.694763,334.037598 460.032623,345.623260 459.868774,361.160187 
	C510.667572,343.416260 559.963684,323.233459 611.008545,305.848114 
	C610.575928,309.717346 608.431946,309.432983 607.064148,309.962708 
	C595.266235,314.532043 583.396362,318.916382 571.618530,323.535889 
	C568.818604,324.634064 564.937256,324.987122 564.516418,328.938965 
	C564.127136,332.594788 567.650574,333.713623 569.903748,335.515991 
	C581.875977,345.092712 591.591614,356.158142 594.759460,371.793793 
	C597.257202,384.121429 595.603821,396.102081 592.747437,408.105927 
	C590.474792,407.718750 590.620544,406.305634 590.811401,405.289429 
	C594.757446,384.283600 584.298035,370.633240 567.797791,360.060028 
	C562.741272,356.819824 557.537659,353.798492 551.911499,351.679932 
	C547.365845,349.968262 544.967346,351.479065 545.045593,356.252838 
	C545.214600,366.566376 545.228516,376.875610 545.877563,387.197571 
	C546.618225,398.976288 546.269226,410.826996 546.274353,422.646454 
	C546.276001,426.447388 543.847656,429.081207 541.250854,431.516296 
	C528.267517,443.691498 521.543030,458.913574 519.428589,476.373047 
	C519.308899,477.360870 519.302490,478.369141 519.331665,479.365295 
	C519.345459,479.837952 519.567444,480.304504 519.815308,481.215668 
	C541.536133,480.833008 559.741455,473.304047 573.363159,455.441345 
	C570.777893,461.493652 566.948792,466.304016 562.180176,470.262939 
	C550.969788,479.569885 538.661743,486.716461 523.700623,487.645416 
	C518.954102,487.940125 518.202759,490.246185 518.205688,494.383453 
	C518.233093,533.044006 518.556030,571.713013 517.870972,610.363220 
	C517.055908,656.343689 517.334961,702.322876 516.999695,748.301575 
	C516.892883,762.946960 517.103699,777.594482 517.079712,792.240906 
	C517.076355,794.311707 517.581055,796.566833 515.980774,798.552307 
	C514.436462,798.024719 514.771362,796.695557 514.748230,795.678589 
	C514.010925,763.382446 511.588470,731.153320 511.745117,698.810669 
	C512.075195,630.655640 511.847229,562.497925 511.844269,494.341278 
	C511.844238,493.175720 511.830750,492.007782 511.756439,490.845276 
	C511.689026,489.789520 511.335541,488.787598 510.110413,488.707520 
	C508.527283,488.604095 508.218140,489.799744 508.162109,491.036957 
	C508.101837,492.367310 508.135712,493.702179 508.136078,495.035065 
	C508.156616,565.857361 508.182678,636.679688 508.177704,707.502014 
	C508.177551,709.790222 508.571472,712.157043 507.512878,714.373840 
	C505.631927,714.441833 505.861908,712.965759 505.735779,711.951355 
	C505.386810,709.144592 505.023743,706.325317 504.935730,703.502502 
	C503.009857,641.733948 500.813782,579.970642 501.530334,518.151917 
	C501.626801,509.828949 501.099976,501.500183 501.088104,493.173828 
	C501.082581,489.308685 499.728577,487.754913 495.678680,487.150879 
	C480.492157,484.885803 466.401520,479.830109 454.074554,470.206390 
	C439.828003,459.083954 432.617371,444.247040 429.870148,426.819244 
	C427.976379,414.805206 426.682983,402.742279 426.903992,390.553314 
	C426.927521,389.255707 427.141022,387.854675 425.565826,386.511841 
	C411.571228,389.834839 398.339508,396.506561 384.101471,400.048309 
	C386.280853,396.946808 389.709412,396.415436 393.191010,395.148865 
M480.911346,373.429138 
	C475.475281,371.377655 470.147308,372.447174 464.750610,373.774048 
	C460.698914,374.770233 459.001007,376.826904 459.323761,381.178223 
	C460.864044,401.941956 460.335602,422.752533 460.271179,443.545319 
	C460.235535,455.049011 465.192047,463.705902 474.308258,470.167084 
	C480.461212,474.528015 487.316437,477.566467 494.643707,479.391663 
	C496.469177,479.846405 498.445526,480.657349 500.492218,479.522522 
	C500.615753,478.859863 500.840546,478.218994 500.839386,477.578522 
	C500.794373,453.116638 500.913239,428.652344 500.593597,404.193848 
	C500.413757,390.430573 495.582703,379.115906 480.911346,373.429138 
M511.732056,423.500244 
	C512.059082,403.016022 510.116394,382.574951 510.666351,362.077148 
	C510.878448,354.172241 504.912445,349.785309 497.256348,352.267487 
	C485.553528,356.061737 474.041199,360.445404 462.461639,364.616547 
	C459.623932,365.638672 458.543335,367.470062 460.024384,370.253754 
	C462.005005,371.054291 463.466705,370.010376 464.986908,369.445038 
	C474.660095,365.847565 484.301849,362.164795 493.992188,358.614532 
	C501.280518,355.944275 504.416748,357.750946 506.461792,365.234100 
	C507.451355,368.855103 507.343018,372.495087 507.293091,376.144745 
	C506.834869,409.621124 507.907043,443.083984 508.144012,476.554047 
	C508.151062,477.550201 508.171906,478.558716 508.332092,479.537628 
	C508.474579,480.408447 509.004883,481.065826 510.004608,481.053467 
	C511.026642,481.040833 511.496918,480.322968 511.584595,479.457794 
	C511.718475,478.136444 511.725494,476.798706 511.726166,475.467896 
	C511.734833,458.478699 511.732788,441.489471 511.732056,423.500244 
z"/>
</svg>